<?xml version="1.0" encoding="UTF-8"?>
<!DOCTYPE svg PUBLIC "-//W3C//DTD SVG 1.1//EN" "http://www.w3.org/Graphics/SVG/1.1/DTD/svg11.dtd">
<!-- Creator: CorelDRAW 2017 -->
<svg xmlns="http://www.w3.org/2000/svg" xml:space="preserve" width="200mm" height="64.4208mm" version="1.1" style="shape-rendering:geometricPrecision; text-rendering:geometricPrecision; image-rendering:optimizeQuality; fill-rule:evenodd; clip-rule:evenodd"
viewBox="0 0 20113 6478"
 xmlns:xlink="http://www.w3.org/1999/xlink">
 <defs>
  <style type="text/css">
   <![CDATA[
    .fil1 {fill:#FEFEFE}
    .fil2 {fill:#046425}
    .fil3 {fill:#A3D922}
    .fil0 {fill:#A3D922;fill-rule:nonzero}
   ]]>
  </style>
 </defs>
 <g id="Capa_x0020_1">
  <metadata id="CorelCorpID_0Corel-Layer"/>
  <g id="_1415213873104">
   <path class="fil0" d="M6568 4292l397 0 0 -870 772 0 0 870 397 0 0 -2014 -397 0 0 751 -772 0 0 -751 -397 0 0 2014zm2790 -458c-64,97 -148,168 -273,168 -148,0 -257,-105 -288,-267l887 0 0 -134c0,-441 -224,-725 -581,-725 -382,0 -688,284 -688,725 0,441 306,725 688,725 199,0 400,-100 522,-273l-267 -219zm-560 -390c10,-134 102,-262 270,-262 138,0 237,119 234,262l-504 0zm1895 848l352 0 0 -703c0,-461 -120,-714 -566,-714 -201,0 -405,74 -545,222l204 233c82,-102 186,-165 311,-165 132,0 245,97 245,247 -318,0 -838,9 -838,486 0,279 209,427 441,427 155,0 308,-60 392,-208l5 0 0 174zm0 -606l0 91c0,171 -140,259 -290,259 -84,0 -181,-48 -181,-151 0,-188 260,-199 377,-199l94 0zm596 606l382 0 0 -2150 -382 0 0 2150zm1500 -1382l-336 0 0 -410 -382 0 0 410 -245 0 0 341 245 0 0 657c0,302 196,418 451,418 89,0 183,-9 267,-43l0 -356c-33,34 -115,40 -155,40 -166,0 -181,-108 -181,-256l0 -461 336 0 0 -341zm194 -768l0 2150 382 0 0 -688c0,-179 31,-353 229,-353 196,0 199,205 199,364l0 677 382 0 0 -762c0,-370 -71,-654 -459,-654 -186,0 -311,114 -346,222l-5 0 0 -956 -382 0zm2736 768l-392 0 -273 913 -5 0 -318 -913 -413 0 543 1394 -28 80c-53,151 -82,233 -255,233 -64,0 -120,-14 -178,-43l-51 350c92,34 189,51 285,51 364,0 423,-165 525,-458l560 -1607zm902 1382l382 0 0 -2150 -382 0 0 2150zm662 0l382 0 0 -1382 -382 0 0 1382zm-31 -1818c0,137 99,247 222,247 122,0 222,-111 222,-247 0,-137 -99,-247 -222,-247 -122,0 -222,111 -222,247zm820 1818l382 0 0 -1041 283 0 0 -341 -283 0 0 -219c0,-182 61,-225 183,-225 46,0 82,11 125,28l18 -361c-71,-20 -148,-26 -224,-26 -415,0 -484,256 -484,558l0 245 -252 0 0 341 252 0 0 1041zm1714 -458c-64,97 -148,168 -273,168 -148,0 -257,-105 -288,-267l887 0 0 -134c0,-441 -224,-725 -581,-725 -382,0 -688,284 -688,725 0,441 306,725 688,725 199,0 400,-100 522,-273l-267 -219zm-560 -390c10,-134 102,-262 270,-262 138,0 237,119 234,262l-504 0z"/>
   <g>
    <path class="fil1" d="M1248 6064c-544,-345 -993,-810 -1168,-1453 -207,-759 22,-1552 333,-2248 188,-421 415,-836 548,-1278 86,-286 153,-580 215,-872 19,-88 75,-156 158,-191 83,-35 171,-28 247,21 221,141 441,305 647,466 441,346 869,735 1230,1164 88,105 173,212 252,323 131,-66 261,-134 390,-203 434,-233 868,-467 1302,-702 77,-42 161,-44 240,-8 79,37 131,102 149,188 54,256 91,529 119,788 61,557 83,1135 29,1693 -19,194 -47,388 -88,579 -317,1466 -1448,2117 -2795,2145 -644,13 -1244,-54 -1809,-412z"/>
    <g>
     <path class="fil2" d="M1562 5941c-692,-393 -1078,-863 -1224,-1400 -190,-695 34,-1431 319,-2069 196,-438 423,-857 560,-1311 66,-220 137,-503 220,-894 0,0 1409,898 2149,2020 12,17 23,35 34,52 -563,285 -1225,627 -1515,901 -339,320 -576,755 -575,1369 -201,-542 -190,-1302 355,-2344 -603,683 -838,1236 -863,1814 -18,413 277,1557 538,1860z"/>
     <path class="fil3" d="M1775 5804c-476,-1290 -197,-2065 331,-2563 408,-385 1550,-905 2122,-1212 714,-384 1303,-703 1303,-703 0,0 344,1635 60,2949 -327,1512 -1599,2059 -3072,1912 0,0 -823,-2156 1879,-3134 0,0 -1361,-34 -2118,1034 -451,636 -453,1135 -503,1716z"/>
    </g>
   </g>
  </g>
 </g>
</svg>
